<svg xmlns="http://www.w3.org/2000/svg" version="1.1" xmlns:xlink="http://www.w3.org/1999/xlink" xmlns:svgjs="http://svgjs.dev/svgjs" width="1500" height="1500" viewBox="0 0 1500 1500"><rect width="1500" height="1500" fill="#000000"></rect><g transform="matrix(0.6666666666666666,0,0,0.6666666666666666,249.39393939393938,438.5856950067477)"><svg viewBox="0 0 396 247" data-background-color="#ece6d6" preserveAspectRatio="xMidYMid meet" height="935" width="1500" xmlns="http://www.w3.org/2000/svg" xmlns:xlink="http://www.w3.org/1999/xlink"><g id="tight-bounds" transform="matrix(1,0,0,1,0.2400000000000091,-0.09999999999999432)"><svg viewBox="0 0 395.52 247.2" height="247.2" width="395.52"><g><svg></svg></g><g><svg viewBox="0 0 395.52 247.2" height="247.2" width="395.52"><g transform="matrix(1,0,0,1,95.09068702696307,47.215199999999996)"><svg viewBox="0 0 205.33862594607385 152.7696" height="152.7696" width="205.33862594607385"><g><svg viewBox="0 0 205.33862594607385 152.7696" height="152.7696" width="205.33862594607385"><g><svg viewBox="0 0 244.43135999999998 181.8541490798847" height="152.7696" width="205.33862594607385"><g><svg viewBox="0 0 244.43135999999998 181.8541490798847" height="181.8541490798847" width="244.43135999999998"><g id="textblocktransform"><svg viewBox="0 0 244.43135999999998 181.8541490798847" height="181.8541490798847" width="244.43135999999998" id="textblock"><g><svg viewBox="0 0 244.43135999999998 148.00901652784967" height="148.00901652784967" width="244.43135999999998"><g transform="matrix(1,0,0,1,0,0)"><svg width="244.43135999999998" viewBox="51.04 -37.99 137.72 80.4" height="148.00901652784967" data-palette-color="#b2572b"><svg></svg><svg></svg><g class="wordmark-text-0" data-fill-palette-color="primary" id="text-0"><path d="M51.04-33.79v-4.2h8.2v14.8c1.08-0.833 2.253-1.493 3.52-1.98 1.267-0.487 2.577-0.73 3.93-0.73v0c1.66 0 3.183 0.307 4.57 0.92 1.38 0.62 2.57 1.493 3.57 2.62 1 1.12 1.777 2.467 2.33 4.04 0.553 1.567 0.83 3.303 0.83 5.21v0c0 2.033-0.307 3.877-0.92 5.53-0.62 1.653-1.48 3.073-2.58 4.26-1.1 1.187-2.407 2.103-3.92 2.75-1.513 0.64-3.173 0.96-4.98 0.96v0c-1.253 0-2.43-0.183-3.53-0.55-1.093-0.367-2.033-0.843-2.82-1.43v0 1.59h-4.54v-33.79zM65.49-21.9v0c-1.187 0-2.323 0.243-3.41 0.73-1.093 0.493-2.04 1.153-2.84 1.98v0 13.6c0.527 0.533 1.293 1.01 2.3 1.43 1.007 0.413 2.277 0.62 3.81 0.62v0c1.04 0 2.04-0.197 3-0.59 0.96-0.387 1.807-0.977 2.54-1.77 0.733-0.787 1.32-1.767 1.76-2.94 0.44-1.173 0.66-2.54 0.66-4.1v0c0-1.433-0.21-2.703-0.63-3.81-0.413-1.107-0.973-2.043-1.68-2.81-0.707-0.76-1.533-1.34-2.48-1.74-0.94-0.4-1.95-0.6-3.03-0.6zM100.87-25.44v5.49h-4.64v-1.56c-0.533 0-1.083 0.103-1.65 0.31-0.56 0.2-1.083 0.507-1.57 0.92-0.487 0.42-0.913 0.95-1.28 1.59-0.367 0.647-0.633 1.407-0.8 2.28v0 12.21h4.3v4.2h-12.55v-4.2h3.49l0.03-16.89h-3.52v-4.2h8.08v3.49c0.293-0.52 0.623-1.003 0.99-1.45 0.367-0.453 0.773-0.847 1.22-1.18 0.447-0.333 0.943-0.593 1.49-0.78 0.547-0.187 1.137-0.28 1.77-0.28v0c0.847 0 1.643 0 2.39 0 0.753 0 1.503 0.017 2.25 0.05zM128.63-12.06h-18.21c0 0.713 0.053 1.367 0.16 1.96 0.1 0.6 0.25 1.167 0.45 1.7v0c0.6 1.627 1.563 2.853 2.89 3.68 1.327 0.82 2.827 1.23 4.5 1.23v0c1.32 0 2.603-0.183 3.85-0.55 1.247-0.367 2.553-0.94 3.92-1.72v0l1.83 3.1c-1.66 1.14-3.33 1.987-5.01 2.54-1.673 0.553-3.413 0.83-5.22 0.83v0c-1.707 0-3.29-0.287-4.75-0.86-1.453-0.567-2.707-1.413-3.76-2.54-1.047-1.12-1.867-2.517-2.46-4.19-0.6-1.68-0.9-3.633-0.9-5.86v0c0-1.807 0.253-3.513 0.76-5.12 0.507-1.6 1.26-3 2.26-4.2 1-1.193 2.24-2.14 3.72-2.84 1.48-0.7 3.207-1.05 5.18-1.05v0c1.9 0 3.49 0.287 4.77 0.86 1.28 0.58 2.323 1.347 3.13 2.3 0.8 0.953 1.41 2.04 1.83 3.26 0.413 1.22 0.7 2.463 0.86 3.73v0c0.087 0.62 0.14 1.247 0.16 1.88 0.027 0.64 0.04 1.26 0.04 1.86zM117.52-22.14v0c-1.06 0-1.983 0.15-2.77 0.45-0.787 0.3-1.457 0.73-2.01 1.29-0.553 0.56-0.997 1.25-1.33 2.07-0.34 0.813-0.59 1.723-0.75 2.73v0h13.11c-0.067-0.947-0.217-1.817-0.45-2.61-0.233-0.8-0.597-1.493-1.09-2.08-0.487-0.587-1.113-1.043-1.88-1.37-0.76-0.32-1.703-0.48-2.83-0.48zM149.67 0v-2.34c-0.96 0.893-2.02 1.623-3.18 2.19-1.167 0.573-2.49 0.86-3.97 0.86v0c-1.233 0-2.367-0.197-3.4-0.59-1.033-0.387-1.927-0.92-2.68-1.6-0.747-0.673-1.327-1.457-1.74-2.35-0.42-0.9-0.63-1.853-0.63-2.86v0c0-1.073 0.16-2.027 0.48-2.86 0.32-0.827 0.743-1.547 1.27-2.16 0.527-0.607 1.143-1.117 1.85-1.53 0.713-0.42 1.457-0.757 2.23-1.01 0.773-0.247 1.56-0.423 2.36-0.53 0.807-0.107 1.577-0.16 2.31-0.16v0c1.173 0 2.16 0.037 2.96 0.11 0.793 0.073 1.517 0.173 2.17 0.3v0l0.02-2.07c0-0.893-0.13-1.67-0.39-2.33-0.26-0.66-0.627-1.207-1.1-1.64-0.467-0.433-1.03-0.753-1.69-0.96-0.66-0.213-1.397-0.32-2.21-0.32v0c-0.767 0-1.5 0.053-2.2 0.16-0.7 0.107-1.353 0.243-1.96 0.41-0.613 0.173-1.177 0.37-1.69 0.59-0.513 0.22-0.95 0.45-1.31 0.69v0l-1.48-3.14c0.6-0.393 1.257-0.757 1.97-1.09 0.72-0.333 1.473-0.62 2.26-0.86 0.793-0.233 1.6-0.42 2.42-0.56 0.82-0.133 1.63-0.2 2.43-0.2v0c1.46 0 2.777 0.173 3.95 0.52 1.173 0.353 2.167 0.893 2.98 1.62 0.813 0.733 1.44 1.667 1.88 2.8 0.44 1.133 0.66 2.487 0.66 4.06v0l-0.02 12.65h2.8v4.2zM143.52-3.1v0c0.607 0 1.21-0.073 1.81-0.22 0.6-0.147 1.17-0.347 1.71-0.6 0.533-0.253 1.03-0.547 1.49-0.88 0.453-0.333 0.833-0.677 1.14-1.03v0l0.03-5.72h-5.27c-0.88 0-1.683 0.1-2.41 0.3-0.727 0.193-1.353 0.477-1.88 0.85-0.527 0.373-0.937 0.837-1.23 1.39-0.293 0.553-0.44 1.19-0.44 1.91v0c0 0.667 0.12 1.247 0.36 1.74 0.247 0.5 0.593 0.917 1.04 1.25 0.447 0.333 0.98 0.583 1.6 0.75 0.62 0.173 1.303 0.26 2.05 0.26zM177.07-33.79v-4.2h7.98v33.79h3.71v4.2h-8.25v-2.08c-0.813 0.833-1.757 1.483-2.83 1.95-1.073 0.46-2.293 0.69-3.66 0.69v0c-1.713 0-3.307-0.297-4.78-0.89-1.473-0.593-2.75-1.463-3.83-2.61-1.08-1.147-1.927-2.557-2.54-4.23-0.613-1.667-0.92-3.573-0.92-5.72v0c0-1.953 0.293-3.733 0.88-5.34 0.587-1.6 1.417-2.967 2.49-4.1 1.08-1.127 2.377-2.003 3.89-2.63 1.513-0.627 3.197-0.94 5.05-0.94v0c1.22 0 2.333 0.133 3.34 0.4 1.013 0.267 1.983 0.733 2.91 1.4v0-9.69zM174.6-3.39v0c1.353 0 2.483-0.2 3.39-0.6 0.913-0.4 1.753-1 2.52-1.8v0-14.16c-0.813-0.68-1.75-1.177-2.81-1.49-1.06-0.307-2.143-0.46-3.25-0.46v0c-1.073 0-2.08 0.2-3.02 0.6-0.947 0.4-1.773 0.98-2.48 1.74-0.707 0.767-1.263 1.703-1.67 2.81-0.407 1.107-0.61 2.377-0.61 3.81v0c0 1.56 0.193 2.937 0.58 4.13 0.393 1.187 0.94 2.183 1.64 2.99 0.7 0.807 1.537 1.413 2.51 1.82 0.98 0.407 2.047 0.61 3.2 0.61z" fill="#ffffff" fill-rule="nonzero" stroke="none" stroke-width="1" stroke-linecap="butt" stroke-linejoin="miter" stroke-miterlimit="10" stroke-dasharray="" stroke-dashoffset="0" font-family="none" font-weight="none" font-size="none" text-anchor="none" style="mix-blend-mode: normal" data-fill-palette-color="primary" opacity="1"></path><path d="M61.69 20.61v-4.2h8.06v2.95h0.05c0.553-0.473 1.133-0.917 1.74-1.33 0.613-0.413 1.253-0.777 1.92-1.09 0.667-0.307 1.363-0.55 2.09-0.73 0.72-0.18 1.47-0.27 2.25-0.27v0c1.827 0 3.4 0.34 4.72 1.02 1.313 0.673 2.33 1.727 3.05 3.16v0c0.62-0.553 1.27-1.087 1.95-1.6 0.687-0.513 1.4-0.957 2.14-1.33 0.74-0.373 1.517-0.677 2.33-0.91 0.813-0.227 1.66-0.34 2.54-0.34v0c1.367 0 2.593 0.187 3.68 0.56 1.093 0.38 2.023 0.95 2.79 1.71 0.767 0.767 1.347 1.75 1.74 2.95 0.4 1.193 0.6 2.603 0.6 4.23v0 12.11h3.52v4.2h-11.82v-4.2h3.57v-11.55c0-1.933-0.49-3.4-1.47-4.4-0.973-1.007-2.38-1.51-4.22-1.51v0c-1.093 0-2.21 0.263-3.35 0.79-1.14 0.52-2.117 1.177-2.93 1.97v0 14.7h3.49v4.2h-11.79v-4.2h3.57v-11.55c0-1.933-0.493-3.4-1.48-4.4-0.987-1.007-2.4-1.51-4.24-1.51v0c-1.053 0-2.117 0.253-3.19 0.76-1.08 0.507-2.1 1.133-3.06 1.88v0 14.82h3.57v4.2h-11.82v-4.2h3.52v-16.89zM126.61 41.7v-2.34c-0.96 0.893-2.023 1.623-3.19 2.19-1.16 0.573-2.48 0.86-3.96 0.86v0c-1.24 0-2.377-0.197-3.41-0.59-1.033-0.387-1.923-0.92-2.67-1.6-0.753-0.673-1.337-1.457-1.75-2.35-0.413-0.9-0.62-1.853-0.62-2.86v0c0-1.073 0.157-2.027 0.47-2.86 0.32-0.827 0.743-1.547 1.27-2.16 0.533-0.607 1.153-1.117 1.86-1.53 0.707-0.42 1.447-0.757 2.22-1.01 0.773-0.247 1.563-0.423 2.37-0.53 0.807-0.107 1.577-0.16 2.31-0.16v0c1.167 0 2.15 0.037 2.95 0.11 0.8 0.073 1.523 0.173 2.17 0.3v0l0.03-2.07c0-0.893-0.13-1.67-0.39-2.33-0.26-0.66-0.627-1.207-1.1-1.64-0.473-0.433-1.04-0.753-1.7-0.96-0.66-0.213-1.397-0.32-2.21-0.32v0c-0.767 0-1.5 0.053-2.2 0.16-0.7 0.107-1.353 0.243-1.96 0.41-0.613 0.173-1.177 0.37-1.69 0.59-0.507 0.22-0.94 0.45-1.3 0.69v0l-1.49-3.14c0.6-0.393 1.26-0.757 1.98-1.09 0.713-0.333 1.463-0.62 2.25-0.86 0.793-0.233 1.6-0.42 2.42-0.56 0.82-0.133 1.63-0.2 2.43-0.2v0c1.467 0 2.787 0.173 3.96 0.52 1.167 0.353 2.157 0.893 2.97 1.62 0.82 0.733 1.447 1.667 1.88 2.8 0.44 1.133 0.66 2.487 0.66 4.06v0l-0.02 12.65h2.81v4.2zM120.46 38.6v0c0.6 0 1.2-0.073 1.8-0.22 0.607-0.147 1.177-0.347 1.71-0.6 0.54-0.253 1.037-0.547 1.49-0.88 0.453-0.333 0.837-0.677 1.15-1.03v0l0.02-5.72h-5.27c-0.88 0-1.683 0.1-2.41 0.3-0.72 0.193-1.347 0.477-1.88 0.85-0.527 0.373-0.937 0.837-1.23 1.39-0.293 0.553-0.44 1.19-0.44 1.91v0c0 0.667 0.123 1.247 0.37 1.74 0.24 0.5 0.587 0.917 1.04 1.25 0.447 0.333 0.98 0.583 1.6 0.75 0.613 0.173 1.297 0.26 2.05 0.26zM146.41 8.25v8.16h5.93v3.68h-5.98l-0.07 14.6c0 0.993 0.113 1.8 0.34 2.42 0.227 0.62 0.593 1.047 1.1 1.28 0.5 0.24 1.07 0.36 1.71 0.36v0c0.68 0 1.28-0.063 1.8-0.19 0.52-0.12 1.09-0.327 1.71-0.62v0l1.05 3.05c-0.78 0.407-1.6 0.73-2.46 0.97-0.867 0.233-1.887 0.35-3.06 0.35v0c-1.107 0-2.07-0.133-2.89-0.4-0.82-0.273-1.51-0.727-2.07-1.36-0.567-0.633-0.987-1.483-1.26-2.55-0.28-1.067-0.42-2.397-0.42-3.99v0l0.08-13.92h-4.03v-3.68h4.07v-6.06zM180.2 29.64h-18.22c0 0.713 0.053 1.367 0.16 1.96 0.107 0.6 0.257 1.167 0.45 1.7v0c0.607 1.627 1.573 2.853 2.9 3.68 1.327 0.82 2.827 1.23 4.5 1.23v0c1.32 0 2.603-0.183 3.85-0.55 1.247-0.367 2.553-0.94 3.92-1.72v0l1.83 3.1c-1.66 1.14-3.33 1.987-5.01 2.54-1.673 0.553-3.413 0.83-5.22 0.83v0c-1.713 0-3.297-0.287-4.75-0.86-1.46-0.567-2.713-1.413-3.76-2.54-1.053-1.12-1.877-2.517-2.47-4.19-0.593-1.68-0.89-3.633-0.89-5.86v0c0-1.807 0.253-3.513 0.76-5.12 0.507-1.6 1.26-3 2.26-4.2 1-1.193 2.24-2.14 3.72-2.84 1.48-0.7 3.207-1.05 5.18-1.05v0c1.9 0 3.49 0.287 4.77 0.86 1.28 0.58 2.32 1.347 3.12 2.3 0.807 0.953 1.42 2.04 1.84 3.26 0.413 1.22 0.7 2.463 0.86 3.73v0c0.08 0.62 0.133 1.247 0.16 1.88 0.027 0.64 0.04 1.26 0.04 1.86zM169.09 19.56v0c-1.06 0-1.983 0.15-2.77 0.45-0.793 0.3-1.467 0.73-2.02 1.29-0.553 0.56-0.997 1.25-1.33 2.07-0.333 0.813-0.58 1.723-0.74 2.73v0h13.11c-0.067-0.947-0.217-1.817-0.45-2.61-0.24-0.8-0.603-1.493-1.09-2.08-0.487-0.587-1.113-1.043-1.88-1.37-0.767-0.32-1.71-0.48-2.83-0.48z" fill="#ffffff" fill-rule="nonzero" stroke="none" stroke-width="1" stroke-linecap="butt" stroke-linejoin="miter" stroke-miterlimit="10" stroke-dasharray="" stroke-dashoffset="0" font-family="none" font-weight="none" font-size="none" text-anchor="none" style="mix-blend-mode: normal" data-fill-palette-color="accent" opacity="1"></path></g></svg></g></svg></g><g transform="matrix(1,0,0,1,0,164.22270890920504)"><svg viewBox="0 0 244.43135999999998 17.63144017067967" height="17.63144017067967" width="244.43135999999998"><g transform="matrix(1,0,0,1,0,0)"><svg width="244.43135999999998" viewBox="3 -35 492.1 35.5" height="17.63144017067967" data-palette-color="#b2572b"><path d="M3-35L7.4-35 7.4-24 11.65-24Q17.2-24 19.6-22.35L19.6-22.35Q21.75-20.9 22.33-18.88 22.9-16.85 22.9-13.55L22.9-13.55 22.9 0 18.5 0 18.5-13.5Q18.5-14.4 18.45-15.03 18.4-15.65 18.1-16.63 17.8-17.6 17.25-18.23 16.7-18.85 15.65-19.33 14.6-19.8 13.1-19.8L13.1-19.8 7.4-19.8 7.4 0 3 0 3-35ZM31.65-20.85L31.65-20.85Q35.15-24.5 40.4-24.5L40.4-24.5Q42.95-24.5 45.17-23.53 47.4-22.55 49.07-20.85 50.75-19.15 51.7-16.88 52.65-14.6 52.65-12L52.65-12Q52.65-9.4 51.72-7.13 50.8-4.85 49.15-3.15 47.5-1.45 45.25-0.48 43 0.5 40.4 0.5L40.4 0.5Q37.75 0.5 35.52-0.48 33.3-1.45 31.65-3.15 30-4.85 29.07-7.13 28.15-9.4 28.15-12L28.15-12Q28.15-17.3 31.65-20.85ZM40.4-20.3L40.4-20.3Q36.9-20.3 34.77-18 32.65-15.7 32.65-12 32.65-8.3 34.77-6 36.9-3.7 40.4-3.7L40.4-3.7Q43.95-3.7 46.05-6.03 48.15-8.35 48.15-12 48.15-15.65 46.05-17.98 43.95-20.3 40.4-20.3ZM58.15 0L58.15-24 80.2-24Q83.75-24 85.84-22.65L85.84-22.65Q88-21.3 88.67-19.15 89.34-17 89.34-14L89.34-14 89.34 0 84.95 0 84.95-14Q84.95-17.9 82.59-19.15L82.59-19.15Q81.4-19.8 77.75-19.8L77.75-19.8 75.7-19.8 75.7 0 71.3 0 71.3-19.8 62.55-19.8 62.55 0 58.15 0ZM107.09-24.5L107.09-24.5Q115.59-24.15 115.59-17.45L115.59-17.45Q115.59-9.1 104.64-9.1L104.64-9.1 102.59-9.1 102.59-12.95 104.99-12.95Q108.34-12.95 109.64-13.98 110.94-15 110.94-17.4L110.94-17.4Q110.94-18.95 109.79-19.73 108.64-20.5 106.84-20.5L106.84-20.5Q103.29-20.5 101.27-18 99.24-15.5 99.24-12L99.24-12Q99.24-8.3 101.42-6 103.59-3.7 107.09-3.7L107.09-3.7Q110.24-3.7 112.24-5.25L112.24-5.25 115.24-2.3Q111.79 0.5 107.09 0.5L107.09 0.5Q101.39 0.5 97.99-2.85 94.59-6.2 94.59-11.5L94.59-11.5Q94.59-17.4 97.94-21.05 101.29-24.7 107.09-24.5ZM120.84 0L120.84-24 142.89-24Q146.44-24 148.54-22.65L148.54-22.65Q150.69-21.3 151.37-19.15 152.04-17 152.04-14L152.04-14 152.04 0 147.64 0 147.64-14Q147.64-17.9 145.29-19.15L145.29-19.15Q144.09-19.8 140.44-19.8L140.44-19.8 138.39-19.8 138.39 0 133.99 0 133.99-19.8 125.24-19.8 125.24 0 120.84 0ZM171.39-14.1L171.39-14.1 171.39-9.6Q169.49-11.05 166.74-11.05L166.74-11.05Q164.39-11.05 163.09-10.13 161.79-9.2 161.79-7.5L161.79-7.5Q161.79-4.2 166.69-4.2L166.69-4.2 173.29-4.2 173.29-13.75Q173.29-19.8 167.39-19.8L167.39-19.8 159.39-19.8 159.39-24 167.64-24Q172.49-24 175.09-21.6 177.69-19.2 177.69-14.7L177.69-14.7 177.69 0 166.54 0Q162.29 0 159.79-1.9 157.29-3.8 157.29-7.45 157.29-11.1 159.94-13 162.59-14.9 166.59-14.9L166.59-14.9Q168.84-14.9 171.39-14.1ZM201.94-4.2L201.94-35 206.44-35 206.44 0 194.69 0Q189.24 0 185.84-3.48 182.44-6.95 182.44-12.25L182.44-12.25Q182.44-17.45 185.96-20.98 189.49-24.5 194.34-24.5L194.34-24.5Q197.44-24.5 200.14-23L200.14-23 200.14-18.5Q197.64-20.3 194.34-20.3L194.34-20.3Q191.34-20.3 189.26-18.07 187.19-15.85 187.19-12.25L187.19-12.25Q187.19-8.6 189.16-6.4 191.14-4.2 194.69-4.2L194.69-4.2 201.94-4.2ZM224.18-24.5L224.18-24.5Q232.68-24.15 232.68-17.45L232.68-17.45Q232.68-9.1 221.73-9.1L221.73-9.1 219.68-9.1 219.68-12.95 222.08-12.95Q225.43-12.95 226.73-13.98 228.03-15 228.03-17.4L228.03-17.4Q228.03-18.95 226.88-19.73 225.73-20.5 223.93-20.5L223.93-20.5Q220.38-20.5 218.36-18 216.33-15.5 216.33-12L216.33-12Q216.33-8.3 218.51-6 220.68-3.7 224.18-3.7L224.18-3.7Q227.33-3.7 229.33-5.25L229.33-5.25 232.33-2.3Q228.88 0.5 224.18 0.5L224.18 0.5Q218.48 0.5 215.08-2.85 211.68-6.2 211.68-11.5L211.68-11.5Q211.68-17.4 215.03-21.05 218.38-24.7 224.18-24.5ZM249.33-12L249.33-35 253.83-35 253.83-12Q253.83-8.05 255.85-5.88 257.88-3.7 261.43-3.7L261.43-3.7Q265.13-3.7 267.23-5.83 269.33-7.95 269.33-12L269.33-12Q269.33-15.85 267.05-18.07 264.78-20.3 261.08-20.3L261.08-20.3Q257.93-20.3 255.63-18.5L255.63-18.5 255.63-23Q258.38-24.5 261.58-24.5L261.58-24.5Q266.88-24.5 270.35-21.08 273.83-17.65 273.83-12L273.83-12Q273.83-6.05 270.2-2.78 266.58 0.5 261.08 0.5L261.08 0.5Q255.83 0.5 252.58-2.9 249.33-6.3 249.33-12L249.33-12ZM282.73 0L278.33 0 278.33-13.65Q278.33-19.4 280.48-21.6L280.48-21.6Q281.53-22.7 283.03-23.25 284.53-23.8 285.65-23.9 286.78-24 288.73-24L288.73-24 293.13-24 293.13-19.8 287.83-19.8Q286.83-19.8 286.28-19.75 285.73-19.7 284.98-19.4 284.23-19.1 283.68-18.45L283.68-18.45Q282.73-17.25 282.73-13.65L282.73-13.65 282.73 0ZM308.12-24.5L308.12-24.5Q316.62-24.15 316.62-17.45L316.62-17.45Q316.62-9.1 305.67-9.1L305.67-9.1 303.62-9.1 303.62-12.95 306.02-12.95Q309.37-12.95 310.67-13.98 311.97-15 311.97-17.4L311.97-17.4Q311.97-18.95 310.82-19.73 309.67-20.5 307.87-20.5L307.87-20.5Q304.32-20.5 302.3-18 300.27-15.5 300.27-12L300.27-12Q300.27-8.3 302.45-6 304.62-3.7 308.12-3.7L308.12-3.7Q311.27-3.7 313.27-5.25L313.27-5.25 316.27-2.3Q312.82 0.5 308.12 0.5L308.12 0.5Q302.42 0.5 299.02-2.85 295.62-6.2 295.62-11.5L295.62-11.5Q295.62-17.4 298.97-21.05 302.32-24.7 308.12-24.5ZM334.97-14.1L334.97-14.1 334.97-9.6Q333.07-11.05 330.32-11.05L330.32-11.05Q327.97-11.05 326.67-10.13 325.37-9.2 325.37-7.5L325.37-7.5Q325.37-4.2 330.27-4.2L330.27-4.2 336.87-4.2 336.87-13.75Q336.87-19.8 330.97-19.8L330.97-19.8 322.97-19.8 322.97-24 331.22-24Q336.07-24 338.67-21.6 341.27-19.2 341.27-14.7L341.27-14.7 341.27 0 330.12 0Q325.87 0 323.37-1.9 320.87-3.8 320.87-7.45 320.87-11.1 323.52-13 326.17-14.9 330.17-14.9L330.17-14.9Q332.42-14.9 334.97-14.1ZM365.52-4.2L365.52-35 370.02-35 370.02 0 358.27 0Q352.82 0 349.42-3.48 346.02-6.95 346.02-12.25L346.02-12.25Q346.02-17.45 349.54-20.98 353.07-24.5 357.92-24.5L357.92-24.5Q361.02-24.5 363.72-23L363.72-23 363.72-18.5Q361.22-20.3 357.92-20.3L357.92-20.3Q354.92-20.3 352.84-18.07 350.77-15.85 350.77-12.25L350.77-12.25Q350.77-8.6 352.74-6.4 354.72-4.2 358.27-4.2L358.27-4.2 365.52-4.2ZM383.82-24L392.67-24 392.67-19.8 383.82-19.8Q382.37-19.8 381.32-19.25 380.27-18.7 380.27-17.7L380.27-17.7Q380.27-17.1 380.52-16.63 380.77-16.15 381.09-15.85 381.42-15.55 382.09-15.23 382.77-14.9 383.14-14.78 383.52-14.65 386.32-13.75 389.12-12.85 390.47-12.25 391.82-11.65 392.54-10.63 393.27-9.6 393.47-8.63 393.67-7.65 393.67-6.7L393.67-6.7Q393.67 0 384.47 0L384.47 0 375.82 0 375.82-4.2 384.47-4.2Q389.17-4.2 389.17-6.7L389.17-6.7Q389.17-7.9 387.79-8.7 386.42-9.5 384.44-10.05 382.47-10.6 380.49-11.33 378.52-12.05 377.14-13.68 375.77-15.3 375.77-17.7L375.77-17.7Q375.77-20.75 378.12-22.38 380.47-24 383.82-24L383.82-24ZM400.61-19.8L396.16-19.8 405.11-28.75 405.11-24 411.86-24 411.86-19.8 405.11-19.8 405.11-9.5Q405.11-7.75 405.69-6.6 406.26-5.45 407.36-4.98 408.46-4.5 409.44-4.35 410.41-4.2 411.86-4.2L411.86-4.2 411.86 0Q406.11 0 403.36-2.2 400.61-4.4 400.61-9.5L400.61-9.5 400.61-19.8ZM423.11-24L423.11 0 418.71 0 418.71-19.8 414.61-19.8 416.61-24 423.11-24ZM418.51-29L418.51-29Q417.86-29.85 417.86-30.85 417.86-31.85 418.51-32.68 419.16-33.5 420.51-33.5 421.86-33.5 422.51-32.68 423.16-31.85 423.16-30.85 423.16-29.85 422.51-29.03 421.86-28.2 420.51-28.2 419.16-28.2 418.51-29ZM446.21-5.25L446.21-5.25 449.21-2.3Q445.76 0.5 441.31 0.5L441.31 0.5Q435.76 0.5 432.41-3.08 429.06-6.65 429.06-12L429.06-12Q429.06-17.25 432.58-20.88 436.11-24.5 441.31-24.5L441.31-24.5Q445.76-24.5 449.21-21.7L449.21-21.7 446.26-18.7Q444.16-20.3 441.31-20.3L441.31-20.3Q437.86-20.3 435.83-18.03 433.81-15.75 433.81-12 433.81-8.25 435.83-5.98 437.86-3.7 441.31-3.7L441.31-3.7Q444.21-3.7 446.21-5.25ZM462.06-14.45L467.25-24 472.1-24 466.06-13.55Q472.2-11.9 472.2-3.6L472.2-3.6 472.2 0 467.81 0 467.81-3.65Q467.81-7 465.83-8.83 463.85-10.65 460.2-10.65L460.2-10.65Q459.06-10.65 457.85-10.5L457.85-10.5 457.85 0 453.45 0 453.45-35 457.85-35 457.85-14.45Q459.95-14.75 462.06-14.45L462.06-14.45ZM485.25-24L494.1-24 494.1-19.8 485.25-19.8Q483.8-19.8 482.75-19.25 481.7-18.7 481.7-17.7L481.7-17.7Q481.7-17.1 481.95-16.63 482.2-16.15 482.53-15.85 482.85-15.55 483.53-15.23 484.2-14.9 484.58-14.78 484.95-14.65 487.75-13.75 490.55-12.85 491.9-12.25 493.25-11.65 493.98-10.63 494.7-9.6 494.9-8.63 495.1-7.65 495.1-6.7L495.1-6.7Q495.1 0 485.9 0L485.9 0 477.25 0 477.25-4.2 485.9-4.2Q490.6-4.2 490.6-6.7L490.6-6.7Q490.6-7.9 489.23-8.7 487.85-9.5 485.88-10.05 483.9-10.6 481.93-11.33 479.95-12.05 478.58-13.68 477.2-15.3 477.2-17.7L477.2-17.7Q477.2-20.75 479.55-22.38 481.9-24 485.25-24L485.25-24Z" opacity="1" transform="matrix(1,0,0,1,0,0)" fill="#ffffff" class="slogan-text-1" data-fill-palette-color="secondary" id="text-1"></path></svg></g></svg></g></svg></g></svg></g></svg></g></svg></g></svg></g><path d="M126.702 41.215L126.702 0 373.902 0 373.902 247.2 126.702 247.2 126.702 205.985 131.905 205.985 131.905 241.997 368.699 241.997 368.699 5.203 131.905 5.203 131.905 41.215Z" fill="#ffffff" stroke="transparent" data-fill-palette-color="tertiary"></path></svg></g><defs></defs></svg><rect width="395.52" height="247.2" fill="none" stroke="none" visibility="hidden"></rect></g></svg></g></svg>